<?xml version="1.0" encoding="UTF-8" standalone="no"?>
<svg
   version="1.0"
   width="1024.000000pt"
   height="1024.000000pt"
   viewBox="0 0 1024.000000 1024.000000"
   preserveAspectRatio="xMidYMid meet"
   id="svg46"
   sodipodi:docname="unnamed.svg"
   inkscape:version="1.4 (e7c3feb100, 2024-10-09)"
   inkscape:export-batch-path="/home/alix_anneraud/Téléchargements"
   inkscape:export-batch-name="unnamed2"
   inkscape:export-filename="path2-3.svg"
   inkscape:export-xdpi="96"
   inkscape:export-ydpi="96"
   xmlns:inkscape="http://www.inkscape.org/namespaces/inkscape"
   xmlns:sodipodi="http://sodipodi.sourceforge.net/DTD/sodipodi-0.dtd"
   xmlns="http://www.w3.org/2000/svg"
   xmlns:svg="http://www.w3.org/2000/svg">
  <defs
     id="defs46">
    <rect
       x="634.84786"
       y="486.93106"
       width="523.68058"
       height="201.20359"
       id="rect52" />
    <rect
       x="590.74844"
       y="533.78669"
       width="533.78669"
       height="247.14048"
       id="rect50" />
    <rect
       x="577.4739"
       y="572.21458"
       width="461.76875"
       height="185.12825"
       id="rect49" />
    <rect
       x="577.4739"
       y="572.21458"
       width="461.76875"
       height="185.12825"
       id="rect14" />
    <rect
       x="590.74844"
       y="533.78669"
       width="533.78669"
       height="247.14048"
       id="rect15" />
    <rect
       x="634.84786"
       y="486.93106"
       width="523.68058"
       height="201.20359"
       id="rect16" />
  </defs>
  <sodipodi:namedview
     id="namedview46"
     pagecolor="#ffffff"
     bordercolor="#000000"
     borderopacity="0.25"
     inkscape:showpageshadow="2"
     inkscape:pageopacity="0.0"
     inkscape:pagecheckerboard="0"
     inkscape:deskcolor="#d1d1d1"
     inkscape:document-units="pt"
     inkscape:zoom="0.87959431"
     inkscape:cx="875.97201"
     inkscape:cy="763.98857"
     inkscape:window-width="1920"
     inkscape:window-height="1043"
     inkscape:window-x="0"
     inkscape:window-y="0"
     inkscape:window-maximized="1"
     inkscape:current-layer="g14">
    <inkscape:page
       x="1034"
       y="0"
       width="1024"
       height="1024"
       id="page17"
       margin="0"
       bleed="0" />
    <inkscape:page
       x="0"
       y="0"
       width="1024"
       height="1024"
       id="page16"
       margin="0"
       bleed="0" />
  </sodipodi:namedview>
  <metadata
     id="metadata1">
Created by potrace 1.16, written by Peter Selinger 2001-2019
</metadata>
  <g
     transform="translate(0.000000,1024.000000) scale(0.100000,-0.100000)"
     fill="#000000"
     stroke="none"
     id="g14">
    <path
       d="M2525 5843 c-402 -42 -770 -84 -774 -89 -6 -6 224 -1 562 13 140 5 157 4 157 -10 0 -9 -3 -18 -7 -20 -5 -3 -147 -26 -318 -52 -307 -46 -342 -52 -334 -59 2 -2 128 7 279 20 151 13 367 31 479 40 240 20 291 15 409 -41 112 -53 181 -99 437 -290 277 -206 440 -326 478 -350 29 -18 31 -23 19 -42 -6 -9 -56 0 -200 37 -253 65 -550 126 -704 145 -188 23 -496 21 -1385 -11 -171 -6 -173 -6 -173 -28 0 -23 2 -23 197 -29 108 -4 254 -7 325 -7 128 0 128 0 128 -23 0 -23 -4 -24 -92 -30 -51 -3 -271 -11 -488 -17 -405 -12 -440 -14 -440 -29 0 -5 129 -11 288 -15 639 -15 866 -26 880 -44 6 -9 12 -19 12 -24 0 -4 -105 -8 -233 -8 l-233 0 -11 -29 c-6 -17 -8 -32 -5 -35 3 -3 50 -6 104 -6 97 0 112 -6 82 -31 -16 -13 -268 -28 -744 -45 -113 -4 -214 -10 -225 -15 -11 -4 97 -8 240 -9 470 -1 917 -21 1504 -65 439 -34 634 -56 1111 -126 684 -99 916 -132 1095 -154 744 -90 1265 -121 1909 -112 508 7 825 30 1226 88 264 38 774 139 789 156 3 3 -5 3 -19 -1 -14 -3 -142 -26 -285 -50 -530 -90 -992 -126 -1610 -126 -832 0 -1555 63 -2885 253 -14 2 7 7 45 11 117 14 162 47 128 95 -16 23 -20 20 72 52 58 20 140 104 155 157 14 52 -5 128 -45 181 -30 42 -32 29 -5 -39 24 -61 26 -123 5 -140 -24 -20 -184 -15 -302 9 -130 27 -136 27 -127 -1 3 -13 15 -36 26 -53 16 -24 13 -22 -16 9 -45 49 -54 102 -31 182 33 115 143 183 274 171 53 -5 55 -4 26 9 -38 17 -135 18 -189 2 -25 -8 -60 -31 -90 -61 l-48 -48 -57 45 c-31 26 -86 64 -123 87 -70 43 -95 65 -84 76 3 4 32 12 64 18 l57 12 -75 11 c-172 26 -234 42 -314 81 -106 51 -166 112 -166 169 0 21 6 46 13 55 17 24 169 40 329 35 141 -5 144 -2 33 47 -156 69 -374 92 -592 61 l-119 -17 -49 28 c-47 26 -58 28 -175 29 -69 1 -143 0 -165 -3z"
       id="path2"
       style="fill:#133a57;fill-opacity:1"
       inkscape:export-filename="unnamed2_g46.svg"
       inkscape:export-xdpi="96"
       inkscape:export-ydpi="96" />
    <path
       d="M3467 5660 c-27 -5 -51 -11 -53 -13 -6 -5 153 -151 218 -199 54 -42 128 -58 259 -58 98 0 129 7 129 27 0 20 -188 207 -229 228 -40 20 -244 30 -324 15z"
       id="path3"
       style="fill:#31aadf;fill-opacity:1" />
    <path
       d="M3282 5648 c-37 -37 6 -116 88 -166 71 -42 241 -96 239 -75 0 4 -41 44 -90 88 -190 171 -208 182 -237 153z"
       id="path4"
       style="fill:#31aadf;fill-opacity:1" />
    <path
       d="M2610 5634 c-19 -2 -96 -8 -170 -14 -781 -58 -1207 -91 -1215 -95 -5 -2 237 -4 538 -4 488 -1 548 -3 554 -17 3 -8 1 -20 -4 -25 -7 -7 -547 -37 -695 -39 -5 0 -8 -12 -8 -27 l0 -26 353 5 c193 4 358 4 365 1 6 -2 12 -15 12 -28 0 -12 -6 -27 -12 -33 -7 -5 -88 -13 -180 -17 l-168 -7 0 -25 c0 -13 -7 -38 -16 -54 -8 -17 -14 -32 -12 -33 2 -2 190 5 418 16 525 23 707 14 965 -47 94 -23 325 -93 424 -129 24 -9 46 -15 48 -13 9 9 -454 319 -648 434 -237 141 -394 192 -549 177z"
       id="path5"
       style="fill:#31aadf;fill-opacity:1" />
    <path
       d="M3753 5303 c-25 -9 -12 -22 63 -63 73 -40 77 -41 111 -27 l36 14 -31 22 c-67 48 -141 70 -179 54z"
       id="path6"
       style="fill:#133a57;fill-opacity:1" />
    <path
       d="M1635 5258 c-132 -4 -277 -11 -322 -14 -81 -6 -83 -7 -83 -31 0 -23 3 -25 31 -19 17 3 159 6 315 6 l283 0 16 30 c17 33 18 41 8 38 -5 -1 -116 -5 -248 -10z"
       id="path7"
       style="fill:#133a57;fill-opacity:1" />
    <path
       d="M1284 4855 c-3 -8 -3 -19 1 -25 8 -13 365 -14 365 -1 0 5 3 16 6 25 5 14 -14 16 -180 16 -154 0 -188 -3 -192 -15z"
       id="path8"
       style="fill:#133a57;fill-opacity:1" />
    <path
       d="M1555 4680 c507 -46 920 -96 1445 -176 168 -25 290 -44 715 -114 505 -83 977 -144 1350 -174 336 -28 987 -49 1070 -35 25 4 -6 7 -85 8 -426 5 -1131 84 -1930 216 -887 146 -1482 221 -2080 260 -276 18 -642 29 -485 15z"
       id="path9"
       style="fill:#31aadf;fill-opacity:1" />
    <text
       xml:space="preserve"
       style="font-size:640px;line-height:0.9;text-align:start;writing-mode:lr-tb;direction:ltr;text-anchor:start;fill:#31aadf;fill-opacity:1;stroke-width:7.5"
       x="4304.835"
       y="-5281.5591"
       id="text10"
       transform="scale(1,-1)"><tspan
         style="font-style:italic;font-variant:normal;font-weight:bold;font-stretch:normal;font-size:640px;line-height:0.9;font-family:Prompt;-inkscape-font-specification:'Prompt Bold Italic';fill:#31aadf;fill-opacity:1;stroke-width:7.5"
         x="4304.835"
         y="-5281.5591"
         sodipodi:role="line"
         id="tspan10">Mini<tspan
   style="font-style:italic;font-variant:normal;font-weight:bold;font-stretch:normal;font-size:640px;line-height:0.9;font-family:Prompt;-inkscape-font-specification:'Prompt Bold Italic';fill:#133a57;fill-opacity:1"
   id="tspan9">Train</tspan>Store</tspan></text>
    <text
       xml:space="preserve"
       style="font-size:360px;line-height:0.9;text-align:start;writing-mode:lr-tb;direction:ltr;text-anchor:start;fill:#133a57;fill-opacity:1;stroke-width:7.5"
       x="4622.9893"
       y="-4667.7197"
       id="text11"
       transform="scale(1,-1)"><tspan
         style="font-style:italic;font-variant:normal;font-weight:bold;font-stretch:normal;font-size:360px;line-height:0.9;font-family:Prompt;-inkscape-font-specification:'Prompt Bold Italic';fill:#133a57;fill-opacity:1;stroke-width:7.5"
         x="4622.9893"
         y="-4667.7197"
         sodipodi:role="line"
         id="tspan11">modélisme ferroviaire</tspan></text>
    <text
       xml:space="preserve"
       transform="matrix(7.5,0,0,-7.5,0,10240)"
       id="text12"
       style="font-style:italic;font-variant:normal;font-weight:bold;font-stretch:normal;font-size:74.6667px;font-family:Roboto;-inkscape-font-specification:'Roboto Bold Italic';text-align:start;writing-mode:lr-tb;direction:ltr;white-space:pre;shape-inside:url(#rect14);display:inline;fill:#133a57;fill-opacity:1" />
    <text
       xml:space="preserve"
       transform="matrix(7.5,0,0,-7.5,0,10240)"
       id="text13"
       style="font-style:italic;font-variant:normal;font-weight:bold;font-stretch:normal;font-size:85.3333px;line-height:0;font-family:Roboto;-inkscape-font-specification:'Roboto Bold Italic';text-align:start;writing-mode:lr-tb;direction:ltr;white-space:pre;shape-inside:url(#rect15);display:inline;fill:#133a57;fill-opacity:1" />
    <text
       xml:space="preserve"
       transform="matrix(7.5,0,0,-7.5,0,10240)"
       id="text14"
       style="font-style:italic;font-variant:normal;font-weight:bold;font-stretch:normal;font-size:192px;line-height:0;font-family:Roboto;-inkscape-font-specification:'Roboto Bold Italic';text-align:start;writing-mode:lr-tb;direction:ltr;white-space:pre;shape-inside:url(#rect16);display:inline;fill:#133a57;fill-opacity:1" />
  </g>
  <g
     id="g17">
    <rect
       style="fill:#ffffff;fill-opacity:1;stroke:none;stroke-width:0.617294;stroke-opacity:1"
       id="rect17"
       width="158.41817"
       height="158.41817"
       x="1344.7898"
       y="444.10123" />
    <path
       d="m 1306.5738,449.61408 c -40.2,4.2 -77,8.4 -77.4,8.9 -0.6,0.6 22.4,0.1 56.2,-1.3 14,-0.5 15.7,-0.4 15.7,1 0,0.9 -0.3,1.8 -0.7,2 -0.5,0.3 -14.7,2.6 -31.8,5.2 -30.7,4.6 -34.2,5.2 -33.4,5.9 0.2,0.2 12.8,-0.7 27.9,-2 15.1,-1.3 36.7,-3.1 47.9,-4 24,-2 29.1,-1.5 40.9,4.1 11.2,5.3 18.1,9.9 43.7,29 27.7,20.6 44,32.6 47.8,35 2.9,1.8 3.1,2.3 1.9,4.2 -0.6,0.9 -5.6,0 -20,-3.7 -25.3,-6.5 -55,-12.6 -70.4,-14.5 -18.8,-2.3 -49.6,-2.1 -138.5,1.1 -17.1,0.6 -17.3,0.6 -17.3,2.8 0,2.3 0.2,2.3 19.7,2.9 10.8,0.4 25.4,0.7 32.5,0.7 12.8,0 12.8,0 12.8,2.3 0,2.3 -0.4,2.4 -9.2,3 -5.1,0.3 -27.1,1.1 -48.8,1.7 -40.5,1.2 -44,1.4 -44,2.9 0,0.5 12.9,1.1 28.8,1.5 63.9,1.5 86.6,2.6 88,4.4 0.6,0.9 1.2,1.9 1.2,2.4 0,0.4 -10.5,0.8 -23.3,0.8 h -23.3 l -1.1,2.9 c -0.6,1.7 -0.8,3.2 -0.5,3.5 0.3,0.3 5,0.6 10.4,0.6 9.7,0 11.2,0.6 8.2,3.1 -1.6,1.3 -26.8,2.8 -74.4,4.5 -11.3,0.4 -21.4,1 -22.5,1.5 -1.1,0.4 9.7,0.8 24,0.9 47,0.1 91.7,2.1 150.4,6.5 43.9,3.4 64.2689,5.94756 112.1427,7.21274 8.5056,-0.16606 17.0173,-0.26515 25.4573,-1.1127 11.7,-1.4 16.2,-4.7 12.8,-9.5 -1.6,-2.3 -2,-2 7.2,-5.2 5.8,-2 14,-10.4 15.5,-15.7 1.4,-5.2 -0.5,-12.8 -4.5,-18.1 -3,-4.2 -3.2,-2.9 -0.5,3.9 2.4,6.1 2.6,12.3 0.5,14 -2.4,2 -18.4,1.5 -30.2,-0.9 -13,-2.7 -13.6,-2.7 -12.7,0.1 0.3,1.3 1.5,3.6 2.6,5.3 1.6,2.4 1.3,2.2 -1.6,-0.9 -4.5,-4.9 -5.4,-10.2 -3.1,-18.2 3.3,-11.5 14.3,-18.3 27.4,-17.1 5.3,0.5 5.5,0.4 2.6,-0.9 -3.8,-1.7 -13.5,-1.8 -18.9,-0.2 -2.5,0.8 -6,3.1 -9,6.1 l -4.8,4.8 -5.7,-4.5 c -3.1,-2.6 -8.6,-6.4 -12.3,-8.7 -7,-4.3 -9.5,-6.5 -8.4,-7.6 0.3,-0.4 3.2,-1.2 6.4,-1.8 l 5.7,-1.2 -7.5,-1.1 c -17.2,-2.6 -23.4,-4.2 -31.4,-8.1 -10.6,-5.1 -16.6,-11.2 -16.6,-16.9 0,-2.1 0.6,-4.6 1.3,-5.5 1.7,-2.4 16.9,-4 32.9,-3.5 14.1,0.5 14.4,0.2 3.3,-4.7 -15.6,-6.9 -37.4,-9.2 -59.2,-6.1 l -11.9,1.7 -4.9,-2.8 c -4.7,-2.6 -5.8,-2.8 -17.5,-2.9 -6.9,-0.1 -14.3,0 -16.5,0.3 z"
       id="path2-3"
       style="fill:#133a57;fill-opacity:1;stroke-width:0.1"
       sodipodi:nodetypes="cccscccsccccccccscssccsccssccsscccccccccccccccccccccsccccccccsccccccccc"
       inkscape:export-filename="path2-3.svg"
       inkscape:export-xdpi="96"
       inkscape:export-ydpi="96" />
    <path
       d="m 1400.7738,467.91408 c -2.7,0.5 -5.1,1.1 -5.3,1.3 -0.6,0.5 15.3,15.1 21.8,19.9 5.4,4.2 12.8,5.8 25.9,5.8 9.8,0 12.9,-0.7 12.9,-2.7 0,-2 -18.8,-20.7 -22.9,-22.8 -4,-2 -24.4,-3 -32.4,-1.5 z"
       id="path3-6"
       style="fill:#31aadf;fill-opacity:1;stroke-width:0.1" />
    <path
       d="m 1382.2738,469.11408 c -3.7,3.7 0.6,11.6 8.8,16.6 7.1,4.2 24.1,9.6 23.9,7.5 0,-0.4 -4.1,-4.4 -9,-8.8 -19,-17.1 -20.8,-18.2 -23.7,-15.3 z"
       id="path4-7"
       style="fill:#31aadf;fill-opacity:1;stroke-width:0.1" />
    <path
       d="m 1315.0738,470.51408 c -1.9,0.2 -9.6,0.8 -17,1.4 -78.1,5.8 -120.7,9.1 -121.5,9.5 -0.5,0.2 23.7,0.4 53.8,0.4 48.8,0.1 54.8,0.3 55.4,1.7 0.3,0.8 0.1,2 -0.4,2.5 -0.7,0.7 -54.7,3.7 -69.5,3.9 -0.5,0 -0.8,1.2 -0.8,2.7 v 2.6 l 35.3,-0.5 c 19.3,-0.4 35.8,-0.4 36.5,-0.1 0.6,0.2 1.2,1.5 1.2,2.8 0,1.2 -0.6,2.7 -1.2,3.3 -0.7,0.5 -8.8,1.3 -18,1.7 l -16.8,0.7 v 2.5 c 0,1.3 -0.7,3.8 -1.6,5.4 -0.8,1.7 -1.4,3.2 -1.2,3.3 0.2,0.2 19,-0.5 41.8,-1.6 52.5,-2.3 70.7,-1.4 96.5,4.7 9.4,2.3 32.5,9.3 42.4,12.9 2.4,0.9 4.6,1.5 4.8,1.3 0.9,-0.9 -45.4,-31.9 -64.8,-43.4 -23.7,-14.1 -39.4,-19.2 -54.9,-17.7 z"
       id="path5-5"
       style="fill:#31aadf;fill-opacity:1;stroke-width:0.1" />
    <path
       d="m 1429.3738,503.61408 c -2.5,0.9 -1.2,2.2 6.3,6.3 7.3,4 7.7,4.1 11.1,2.7 l 3.6,-1.4 -3.1,-2.2 c -6.7,-4.8 -14.1,-7 -17.9,-5.4 z"
       id="path6-3"
       style="fill:#133a57;fill-opacity:1;stroke-width:0.1" />
    <path
       d="m 1217.5738,508.11408 c -13.2,0.4 -27.7,1.1 -32.2,1.4 -8.1,0.6 -8.3,0.7 -8.3,3.1 0,2.3 0.3,2.5 3.1,1.9 1.7,-0.3 15.9,-0.6 31.5,-0.6 h 28.3 l 1.6,-3 c 1.7,-3.3 1.8,-4.1 0.8,-3.8 -0.5,0.1 -11.6,0.5 -24.8,1 z"
       id="path7-5"
       style="fill:#133a57;fill-opacity:1;stroke-width:0.1" />
    <path
       d="m 1182.4738,548.41408 c -0.3,0.8 -0.3,1.9 0.1,2.5 0.8,1.3 36.5,1.4 36.5,0.1 0,-0.5 0.3,-1.6 0.6,-2.5 0.5,-1.4 -1.4,-1.6 -18,-1.6 -15.4,0 -18.8,0.3 -19.2,1.5 z"
       id="path8-6"
       style="fill:#133a57;fill-opacity:1;stroke-width:0.1" />
    <path
       d="m 1209.5738,565.91408 c 50.7,4.6 92,9.6 144.5,17.6 16.8,2.5 29,4.4 71.5,11.4 25.943,3.76341 51.0691,0.62544 40.5,-1.5 -88.7,-14.6 -148.2,-22.1 -208,-26 -27.6,-1.8 -64.2,-2.9 -48.5,-1.5 z"
       id="path9-2"
       style="fill:#31aadf;fill-opacity:1;stroke-width:0.1"
       sodipodi:nodetypes="ccccsc" />
  </g>
</svg>
