<?xml version="1.0" encoding="UTF-8" standalone="no"?>
<svg
   version="1.0"
   width="159.03552pt"
   height="159.03543pt"
   viewBox="0 0 159.03552 159.03543"
   preserveAspectRatio="xMidYMid"
   id="svg46"
   xmlns="http://www.w3.org/2000/svg"
   xmlns:svg="http://www.w3.org/2000/svg">
  <defs
     id="defs46" />
  <metadata
     id="metadata1">
Created by potrace 1.16, written by Peter Selinger 2001-2019
</metadata>
  <g
     id="g17"
     transform="translate(-1344.4811,-443.79258)">
    <rect
       style="fill:#ffffff;fill-opacity:1;stroke:none;stroke-width:0.617294;stroke-opacity:1"
       id="rect17"
       width="158.41817"
       height="158.41817"
       x="1344.7898"
       y="444.10123" />
    <path
       d="m 1306.5738,449.61408 c -40.2,4.2 -77,8.4 -77.4,8.9 -0.6,0.6 22.4,0.1 56.2,-1.3 14,-0.5 15.7,-0.4 15.7,1 0,0.9 -0.3,1.8 -0.7,2 -0.5,0.3 -14.7,2.6 -31.8,5.2 -30.7,4.6 -34.2,5.2 -33.4,5.9 0.2,0.2 12.8,-0.7 27.9,-2 15.1,-1.3 36.7,-3.1 47.9,-4 24,-2 29.1,-1.5 40.9,4.1 11.2,5.3 18.1,9.9 43.7,29 27.7,20.6 44,32.6 47.8,35 2.9,1.8 3.1,2.3 1.9,4.2 -0.6,0.9 -5.6,0 -20,-3.7 -25.3,-6.5 -55,-12.6 -70.4,-14.5 -18.8,-2.3 -49.6,-2.1 -138.5,1.1 -17.1,0.6 -17.3,0.6 -17.3,2.8 0,2.3 0.2,2.3 19.7,2.9 10.8,0.4 25.4,0.7 32.5,0.7 12.8,0 12.8,0 12.8,2.3 0,2.3 -0.4,2.4 -9.2,3 -5.1,0.3 -27.1,1.1 -48.8,1.7 -40.5,1.2 -44,1.4 -44,2.9 0,0.5 12.9,1.1 28.8,1.5 63.9,1.5 86.6,2.6 88,4.4 0.6,0.9 1.2,1.9 1.2,2.4 0,0.4 -10.5,0.8 -23.3,0.8 h -23.3 l -1.1,2.9 c -0.6,1.7 -0.8,3.2 -0.5,3.5 0.3,0.3 5,0.6 10.4,0.6 9.7,0 11.2,0.6 8.2,3.1 -1.6,1.3 -26.8,2.8 -74.4,4.5 -11.3,0.4 -21.4,1 -22.5,1.5 -1.1,0.4 9.7,0.8 24,0.9 47,0.1 91.7,2.1 150.4,6.5 43.9,3.4 64.2689,5.94756 112.1427,7.21274 8.5056,-0.16606 17.0173,-0.26515 25.4573,-1.1127 11.7,-1.4 16.2,-4.7 12.8,-9.5 -1.6,-2.3 -2,-2 7.2,-5.2 5.8,-2 14,-10.4 15.5,-15.7 1.4,-5.2 -0.5,-12.8 -4.5,-18.1 -3,-4.2 -3.2,-2.9 -0.5,3.9 2.4,6.1 2.6,12.3 0.5,14 -2.4,2 -18.4,1.5 -30.2,-0.9 -13,-2.7 -13.6,-2.7 -12.7,0.1 0.3,1.3 1.5,3.6 2.6,5.3 1.6,2.4 1.3,2.2 -1.6,-0.9 -4.5,-4.9 -5.4,-10.2 -3.1,-18.2 3.3,-11.5 14.3,-18.3 27.4,-17.1 5.3,0.5 5.5,0.4 2.6,-0.9 -3.8,-1.7 -13.5,-1.8 -18.9,-0.2 -2.5,0.8 -6,3.1 -9,6.1 l -4.8,4.8 -5.7,-4.5 c -3.1,-2.6 -8.6,-6.4 -12.3,-8.7 -7,-4.3 -9.5,-6.5 -8.4,-7.6 0.3,-0.4 3.2,-1.2 6.4,-1.8 l 5.7,-1.2 -7.5,-1.1 c -17.2,-2.6 -23.4,-4.2 -31.4,-8.1 -10.6,-5.1 -16.6,-11.2 -16.6,-16.9 0,-2.1 0.6,-4.6 1.3,-5.5 1.7,-2.4 16.9,-4 32.9,-3.5 14.1,0.5 14.4,0.2 3.3,-4.7 -15.6,-6.9 -37.4,-9.2 -59.2,-6.1 l -11.9,1.7 -4.9,-2.8 c -4.7,-2.6 -5.8,-2.8 -17.5,-2.9 -6.9,-0.1 -14.3,0 -16.5,0.3 z"
       id="path2-3"
       style="fill:#133a57;fill-opacity:1;stroke-width:0.1" />
    <path
       d="m 1400.7738,467.91408 c -2.7,0.5 -5.1,1.1 -5.3,1.3 -0.6,0.5 15.3,15.1 21.8,19.9 5.4,4.2 12.8,5.8 25.9,5.8 9.8,0 12.9,-0.7 12.9,-2.7 0,-2 -18.8,-20.7 -22.9,-22.8 -4,-2 -24.4,-3 -32.4,-1.5 z"
       id="path3-6"
       style="fill:#31aadf;fill-opacity:1;stroke-width:0.1" />
    <path
       d="m 1382.2738,469.11408 c -3.7,3.7 0.6,11.6 8.8,16.6 7.1,4.2 24.1,9.6 23.9,7.5 0,-0.4 -4.1,-4.4 -9,-8.8 -19,-17.1 -20.8,-18.2 -23.7,-15.3 z"
       id="path4-7"
       style="fill:#31aadf;fill-opacity:1;stroke-width:0.1" />
    <path
       d="m 1315.0738,470.51408 c -1.9,0.2 -9.6,0.8 -17,1.4 -78.1,5.8 -120.7,9.1 -121.5,9.5 -0.5,0.2 23.7,0.4 53.8,0.4 48.8,0.1 54.8,0.3 55.4,1.7 0.3,0.8 0.1,2 -0.4,2.5 -0.7,0.7 -54.7,3.7 -69.5,3.9 -0.5,0 -0.8,1.2 -0.8,2.7 v 2.6 l 35.3,-0.5 c 19.3,-0.4 35.8,-0.4 36.5,-0.1 0.6,0.2 1.2,1.5 1.2,2.8 0,1.2 -0.6,2.7 -1.2,3.3 -0.7,0.5 -8.8,1.3 -18,1.7 l -16.8,0.7 v 2.5 c 0,1.3 -0.7,3.8 -1.6,5.4 -0.8,1.7 -1.4,3.2 -1.2,3.3 0.2,0.2 19,-0.5 41.8,-1.6 52.5,-2.3 70.7,-1.4 96.5,4.7 9.4,2.3 32.5,9.3 42.4,12.9 2.4,0.9 4.6,1.5 4.8,1.3 0.9,-0.9 -45.4,-31.9 -64.8,-43.4 -23.7,-14.1 -39.4,-19.2 -54.9,-17.7 z"
       id="path5-5"
       style="fill:#31aadf;fill-opacity:1;stroke-width:0.1" />
    <path
       d="m 1429.3738,503.61408 c -2.5,0.9 -1.2,2.2 6.3,6.3 7.3,4 7.7,4.1 11.1,2.7 l 3.6,-1.4 -3.1,-2.2 c -6.7,-4.8 -14.1,-7 -17.9,-5.4 z"
       id="path6-3"
       style="fill:#133a57;fill-opacity:1;stroke-width:0.1" />
    <path
       d="m 1217.5738,508.11408 c -13.2,0.4 -27.7,1.1 -32.2,1.4 -8.1,0.6 -8.3,0.7 -8.3,3.1 0,2.3 0.3,2.5 3.1,1.9 1.7,-0.3 15.9,-0.6 31.5,-0.6 h 28.3 l 1.6,-3 c 1.7,-3.3 1.8,-4.1 0.8,-3.8 -0.5,0.1 -11.6,0.5 -24.8,1 z"
       id="path7-5"
       style="fill:#133a57;fill-opacity:1;stroke-width:0.1" />
    <path
       d="m 1182.4738,548.41408 c -0.3,0.8 -0.3,1.9 0.1,2.5 0.8,1.3 36.5,1.4 36.5,0.1 0,-0.5 0.3,-1.6 0.6,-2.5 0.5,-1.4 -1.4,-1.6 -18,-1.6 -15.4,0 -18.8,0.3 -19.2,1.5 z"
       id="path8-6"
       style="fill:#133a57;fill-opacity:1;stroke-width:0.1" />
    <path
       d="m 1209.5738,565.91408 c 50.7,4.6 92,9.6 144.5,17.6 16.8,2.5 29,4.4 71.5,11.4 25.943,3.76341 51.0691,0.62544 40.5,-1.5 -88.7,-14.6 -148.2,-22.1 -208,-26 -27.6,-1.8 -64.2,-2.9 -48.5,-1.5 z"
       id="path9-2"
       style="fill:#31aadf;fill-opacity:1;stroke-width:0.1" />
  </g>
</svg>
